HIERARCHY
ROOT Hips
{
	OFFSET	0.00	0.00	0.00
	CHANNELS 6 Xposition Yposition Zposition Zrotation Xrotation Yrotation
	JOINT LeftUpLeg
	{
		OFFSET	 0.126116	-0.065224	 0.014019
		CHANNELS 3 Zrotation Xrotation Yrotation
		JOINT LeftLeg
		{
			OFFSET	 0.000000	 0.569914	 0.000000
			CHANNELS 3 Zrotation Xrotation Yrotation
			JOINT LeftFoot
			{
				OFFSET	 0.000000	 0.544423	 0.000000
				CHANNELS 3 Zrotation Xrotation Yrotation
				JOINT LeftToeBase
				{
					OFFSET	 0.000000	 0.207117	 0.000000
					CHANNELS 3 Zrotation Xrotation Yrotation
					End Site
					{
						OFFSET	 0.000000	 0.207117	 0.000000
					}
				}
			}
		}
	}
	JOINT RightUpLeg
	{
		OFFSET	-0.124023	-0.065224	 0.008373
		CHANNELS 3 Zrotation Xrotation Yrotation
		JOINT RightLeg
		{
			OFFSET	 0.000000	 0.570047	 0.000000
			CHANNELS 3 Zrotation Xrotation Yrotation
			JOINT RightFoot
			{
				OFFSET	 0.000000	 0.544354	 0.000000
				CHANNELS 3 Zrotation Xrotation Yrotation
				JOINT RightToeBase
				{
					OFFSET	 0.000000	 0.207540	 0.000000
					CHANNELS 3 Zrotation Xrotation Yrotation
					End Site
					{
						OFFSET	 0.000000	 0.207540	 0.000000
					}
				}
			}
		}
	}
	JOINT Spine
	{
		OFFSET	 0.000184	 0.117403	 0.007763
		CHANNELS 3 Zrotation Xrotation Yrotation
		JOINT Spine1
		{
			OFFSET	 0.000000	 0.137269	 0.000000
			CHANNELS 3 Zrotation Xrotation Yrotation
			JOINT Spine2
			{
				OFFSET	 0.000000	 0.156879	 0.000000
				CHANNELS 3 Zrotation Xrotation Yrotation
				JOINT LeftShoulder
				{
					OFFSET	 0.080501	 0.160143	 0.002496
					CHANNELS 3 Zrotation Xrotation Yrotation
					JOINT LeftArm
					{
						OFFSET	 0.000000	 0.164363	 0.000000
						CHANNELS 3 Zrotation Xrotation Yrotation
						JOINT LeftForeArm
						{
							OFFSET	 0.000000	 0.364576	 0.000000
							CHANNELS 3 Zrotation Xrotation Yrotation
							JOINT LeftHand
							{
								OFFSET	 0.000000	 0.360812	 0.000000
								CHANNELS 3 Zrotation Xrotation Yrotation
								JOINT LeftHandIndex1
								{
									OFFSET	 0.000000	 0.086006	 0.000000
									CHANNELS 3 Zrotation Xrotation Yrotation
									JOINT LeftHandIndex2
									{
										OFFSET	 0.000000	 0.047237	 0.000000
										CHANNELS 3 Zrotation Xrotation Yrotation
										JOINT LeftHandIndex3
										{
											OFFSET	-0.004284	 0.038165	 0.000551
											CHANNELS 3 Zrotation Xrotation Yrotation
											End Site
											{
												OFFSET	-0.004284	 0.038165	 0.000551
											}
										}
									}
								}
							}
						}
					}
				}
				JOINT Neck
				{
					OFFSET	 0.000000	 0.176489	 0.000000
					CHANNELS 3 Zrotation Xrotation Yrotation
					JOINT Head
					{
						OFFSET	 0.000000	 0.077941	 0.001747
						CHANNELS 3 Zrotation Xrotation Yrotation
						End Site
						{
							OFFSET	 0.000000	 0.077941	 0.001747
						}
					}
				}
				JOINT RightShoulder
				{
					OFFSET	-0.080363	 0.159706	-0.000306
					CHANNELS 3 Zrotation Xrotation Yrotation
					JOINT RightArm
					{
						OFFSET	 0.000000	 0.164196	 0.000000
						CHANNELS 3 Zrotation Xrotation Yrotation
						JOINT RightForeArm
						{
							OFFSET	 0.000000	 0.365611	 0.000000
							CHANNELS 3 Zrotation Xrotation Yrotation
							JOINT RightHand
							{
								OFFSET	 0.000000	 0.360648	 0.000000
								CHANNELS 3 Zrotation Xrotation Yrotation
								JOINT RightHandIndex1
								{
									OFFSET	 0.000000	 0.069977	 0.000000
									CHANNELS 3 Zrotation Xrotation Yrotation
									JOINT RightHandIndex2
									{
										OFFSET	 0.000000	 0.052305	 0.000000
										CHANNELS 3 Zrotation Xrotation Yrotation
										JOINT RightHandIndex3
										{
											OFFSET	 0.009002	 0.042196	 0.000782
											CHANNELS 3 Zrotation Xrotation Yrotation
											End Site
											{
												OFFSET	 0.009002	 0.042196	 0.000782
											}
										}
									}
								}
							}
						}
					}
				}
			}
		}
	}
}
MOTION
Frames:    6
Frame Time: 0.03333334
 0.001163	 1.301354	 0.061407	 0.076735	-0.014720	-179.996200	 178.256800	 1.465338	 13.645400	 2.633569	-12.237410	 0.024916	-2.027790	 66.583590	 3.726373	 1.292262	 28.425850	-2.713146	-178.141400	 1.720790	-13.644790	-2.562817	-12.270290	-0.009280	 2.099440	 66.397250	-3.771231	-1.288183	 28.361890	 2.710176	-0.067634	 1.617275	-1.727974	 0.299799	 7.525082	-0.918142	-0.253902	-9.708603	 2.598493	-101.478000	 1.740670	 90.353370	-11.261240	 47.581600	 11.982190	 17.908390	 32.759370	-3.848220	 9.418288	-8.027221	-3.782488	-6.580301	 5.266122	 0.000000	 0.000000	 0.000000	 0.000000	 0.000000	 0.000000	 0.000000	 0.089846	-3.783161	 0.005928	-0.003537	 0.641840	 0.631494	 101.796200	-0.213326	-89.955440	-49.667240	 11.243120	 54.672830	-71.310810	 55.468670	 37.377850	 30.835950	-17.573970	-38.936300	 15.208500	 5.323790	 0.000000	 0.000000	 0.000000	 0.000000	 0.000000	 0.000000	 0.000000
 0.001192	 1.301369	 0.061409	 0.070950	-0.015280	-179.996600	 178.257600	 1.454648	 13.645010	 2.627934	-12.212040	 0.023726	-2.025294	 66.570710	 3.725472	 1.292262	 28.425850	-2.713146	-178.144900	 1.726095	-13.645220	-2.565034	-12.280570	-0.009751	 2.100868	 66.402350	-3.771714	-1.288183	 28.361890	 2.710176	-0.067825	 1.603749	-1.558980	 0.264084	 7.571743	-0.824299	-0.225680	-9.770663	 2.338950	-101.478000	 1.740674	 90.353390	-11.288630	 47.392330	 11.959720	 17.864120	 32.696680	-3.824182	 9.706537	-4.611382	-3.201672	-6.580301	 5.266122	 0.000000	 0.000000	 0.000000	 0.000000	 0.000000	 0.000000	 0.000000	 0.089846	-3.783161	 0.005928	-0.003166	 0.637691	 0.568824	 101.796200	-0.213314	-89.955470	-53.981380	 8.888994	 57.247260	-62.114570	 53.593920	 29.641620	 32.116990	-13.641470	-41.280880	 15.208500	 5.323790	 0.000000	 0.000000	 0.000000	 0.000000	 0.000000	 0.000000	 0.000000
 0.001221	 1.301382	 0.061409	 0.064671	-0.016130	-179.996900	 178.258000	 1.444193	 13.644540	 2.622274	-12.186540	 0.022527	-2.022988	 66.557750	 3.724833	 1.292262	 28.425850	-2.713146	-178.148500	 1.732207	-13.645600	-2.567512	-12.292060	-0.010278	 2.102573	 66.408110	-3.772409	-1.288183	 28.361890	 2.710176	-0.068279	 1.590923	-1.380371	 0.226755	 7.614611	-0.724841	-0.196349	-9.828108	 2.064664	-101.478000	 1.740661	 90.353370	-11.312880	 47.209190	 11.932280	 17.814560	 32.626710	-3.797517	 9.897735	-1.802949	-2.604653	-6.580301	 5.266122	 0.000000	 0.000000	 0.000000	 0.000000	 0.000000	 0.000000	 0.000000	 0.089846	-3.783161	 0.005928	-0.002780	 0.633811	 0.502652	 101.796200	-0.213316	-89.955450	-58.531740	 6.460497	 59.436000	-52.534280	 50.607110	 21.818880	 32.506260	-10.316020	-44.427250	 15.208500	 5.323790	 0.000000	 0.000000	 0.000000	 0.000000	 0.000000	 0.000000	 0.000000
 0.001425	 1.301440	 0.061417	 0.002057	-0.018689	-180.000000	 178.241600	 1.365415	 13.641110	 2.581775	-12.003950	 0.014037	-2.003676	 66.465070	 3.718494	 1.292262	 28.425850	-2.713146	-178.183100	 1.787313	-13.649290	-2.592531	-12.408080	-0.015630	 2.116183	 66.466420	-3.776973	-1.288183	 28.361890	 2.710176	-0.084965	 1.475921	 0.117652	-0.078252	 7.897240	 0.113601	 0.039628	-10.087270	-0.240185	-101.478000	 1.740673	 90.353390	-11.421020	 46.659730	 11.705860	 17.464760	 32.129240	-3.610134	 10.677740	-17.195590	 2.664288	-6.580301	 5.266122	 0.000000	 0.000000	 0.000000	 0.000000	 0.000000	 0.000000	 0.000000	 0.089846	-3.783161	 0.005928	 0.000278	 0.620964	-0.051326	 101.796200	-0.213308	-89.955460	-93.000220	-5.837105	 62.581200	-2.802283	 4.289590	-6.198823	-9.661479	-5.468806	-73.963490	 15.208500	 5.323790	 0.000000	 0.000000	 0.000000	 0.000000	 0.000000	 0.000000	 0.000000
 0.001444	 1.301446	 0.061418	-0.006020	-0.018988	 179.999600	 178.238900	 1.355705	 13.640640	 2.576804	-11.981530	 0.013007	-2.000857	 66.453640	 3.717574	 1.292262	 28.425850	-2.713146	-178.188400	 1.792249	-13.649880	-2.594727	-12.418270	-0.016099	 2.116782	 66.471470	-3.776998	-1.288183	 28.361890	 2.710176	-0.083611	 1.478069	 0.280974	-0.119593	 7.890527	 0.205675	 0.068849	-10.078850	-0.491536	-101.478000	 1.740659	 90.353370	-11.400200	 46.744880	 11.744720	 17.451770	 32.110830	-3.603283	 11.108010	-21.068920	 3.302109	-6.580301	 5.266122	 0.000000	 0.000000	 0.000000	 0.000000	 0.000000	 0.000000	 0.000000	 0.089846	-3.783161	 0.005928	 0.000606	 0.621388	-0.111709	 101.796200	-0.213319	-89.955440	-87.988400	-4.891323	 63.156390	-8.291261	 12.475330	-5.132818	-7.287151	-10.252280	-71.656870	 15.208500	 5.323790	 0.000000	 0.000000	 0.000000	 0.000000	 0.000000	 0.000000	 0.000000
 0.001465	 1.301450	 0.061418	-0.015589	-0.018967	 179.999200	 178.235000	 1.344951	 13.640240	 2.571495	-11.957560	 0.011904	-1.997684	 66.441430	 3.716429	 1.292262	 28.425850	-2.713146	-178.194500	 1.798157	-13.650310	-2.597560	-12.431380	-0.016712	 2.117943	 66.477990	-3.777455	-1.288183	 28.361890	 2.710176	-0.082204	 1.482287	 0.467568	-0.167181	 7.876926	 0.310731	 0.102451	-10.061570	-0.778715	-101.478000	 1.740678	 90.353400	-11.381410	 46.897110	 11.796100	 17.447850	 32.105080	-3.601130	 11.700530	-25.518670	 4.113591	-6.580301	 5.266122	 0.000000	 0.000000	 0.000000	 0.000000	 0.000000	 0.000000	 0.000000	 0.089846	-3.783161	 0.005928	 0.000981	 0.622241	-0.180685	 101.796200	-0.213310	-89.955440	-81.540500	-3.153413	 63.620510	-15.734810	 22.589970	-2.581481	-4.772020	-16.908040	-69.225080	 15.208500	 5.323790	 0.000000	 0.000000	 0.000000	 0.000000	 0.000000	 0.000000	 0.000000
